# xmcd
#
# Track frame offsets:
#	150
#	22525
#	43902
#	72075
#	90755
#	121162
#	148290
#	173187
#	197307
#	222585
#	238562
#	283732
#	310892
#
# Disc length: 4464 seconds
#
# Revision: 1
# Processed by: cddbd v1.5.1PL0 Copyright (c) Steve Scherf et al.
# Submitted via: CDex 1.50Beta5
#
DISCID=b0116e0d
DTITLE=さまざまなアーティスト - sparkle/guitar music colle.
DYEAR=1900
DGENRE=Other
TTITLE0=1
TTITLE1=2
TTITLE2=3
TTITLE3=4
TTITLE4=5
TTITLE5=6
TTITLE6=7
TTITLE7=8
TTITLE8=9
TTITLE9=10
TTITLE10=11
TTITLE11=12
TTITLE12=13
EXTD=
EXTT0=
EXTT1=
EXTT2=
EXTT3=
EXTT4=
EXTT5=
EXTT6=
EXTT7=
EXTT8=
EXTT9=
EXTT10=
EXTT11=
EXTT12=
PLAYORDER=
